<svg width="24" height="24" viewBox="0 0 24 24" fill="none" xmlns="http://www.w3.org/2000/svg">
<g filter="url(#filter0_d_110_43)">
<path fill-rule="evenodd" clip-rule="evenodd" d="M11.995 7.23319C10.5455 5.60999 8.12832 5.17335 6.31215 6.65972C4.49599 8.14609 4.2403 10.6312 5.66654 12.3892L11.995 18.25L18.3235 12.3892C19.7498 10.6312 19.5253 8.13046 17.6779 6.65972C15.8305 5.18899 13.4446 5.60999 11.995 7.23319Z" fill="#FF9D9D"/>
<path fill-rule="evenodd" clip-rule="evenodd" d="M11.995 7.23319C10.5455 5.60999 8.12832 5.17335 6.31215 6.65972C4.49599 8.14609 4.2403 10.6312 5.66654 12.3892L11.995 18.25L18.3235 12.3892C19.7498 10.6312 19.5253 8.13046 17.6779 6.65972C15.8305 5.18899 13.4446 5.60999 11.995 7.23319Z" stroke="black" stroke-width="1.5" stroke-linecap="round" stroke-linejoin="round"/>
</g>
<defs>
<filter id="filter0_d_110_43" x="1.99979" y="4.99884" width="18.0002" height="16.0012" filterUnits="userSpaceOnUse" color-interpolation-filters="sRGB">
<feFlood flood-opacity="0" result="BackgroundImageFix"/>
<feColorMatrix in="SourceAlpha" type="matrix" values="0 0 0 0 0 0 0 0 0 0 0 0 0 0 0 0 0 0 127 0" result="hardAlpha"/>
<feOffset dx="-2" dy="2"/>
<feComposite in2="hardAlpha" operator="out"/>
<feColorMatrix type="matrix" values="0 0 0 0 0 0 0 0 0 0 0 0 0 0 0 0 0 0 1 0"/>
<feBlend mode="normal" in2="BackgroundImageFix" result="effect1_dropShadow_110_43"/>
<feBlend mode="normal" in="SourceGraphic" in2="effect1_dropShadow_110_43" result="shape"/>
</filter>
</defs>
</svg>
