<svg width="33" height="45" viewBox="0 0 33 45" fill="none" xmlns="http://www.w3.org/2000/svg">
<g filter="url(#filter0_d_18_121)">
<mask id="path-1-outside-1_18_121" maskUnits="userSpaceOnUse" x="4.83331" y="4.33331" width="24" height="24" fill="black">
<rect fill="white" x="4.83331" y="4.33331" width="24" height="24"/>
<path d="M26.1666 21V8.99998C26.1666 8.29274 25.8857 7.61446 25.3856 7.11436C24.8855 6.61426 24.2072 6.33331 23.5 6.33331H9.49998C8.79274 6.33331 8.11446 6.61426 7.61436 7.11436C7.11426 7.61446 6.83331 8.29274 6.83331 8.99998V23C6.83331 23.7072 7.11426 24.3855 7.61436 24.8856C8.11446 25.3857 8.79274 25.6666 9.49998 25.6666H22.5"/>
</mask>
<path d="M26.1666 21V8.99998C26.1666 8.29274 25.8857 7.61446 25.3856 7.11436C24.8855 6.61426 24.2072 6.33331 23.5 6.33331H9.49998C8.79274 6.33331 8.11446 6.61426 7.61436 7.11436C7.11426 7.61446 6.83331 8.29274 6.83331 8.99998V23C6.83331 23.7072 7.11426 24.3855 7.61436 24.8856C8.11446 25.3857 8.79274 25.6666 9.49998 25.6666H22.5" fill="#969696"/>
<path d="M26.953 21.6178C27.2942 21.1835 27.2187 20.5549 26.7845 20.2137C26.3502 19.8724 25.7215 19.9479 25.3803 20.3822L26.953 21.6178ZM21.7137 25.0488C21.3724 25.4831 21.4479 26.1118 21.8821 26.453C22.3164 26.7942 22.9451 26.7187 23.2863 26.2845L21.7137 25.0488ZM25.3803 20.3822L21.7137 25.0488L23.2863 26.2845L26.953 21.6178L25.3803 20.3822ZM24.1666 21C24.1666 22.1045 25.0621 23 26.1666 23C27.2712 23 28.1666 22.1045 28.1666 21H24.1666ZM23.5 6.33331V4.33331V6.33331ZM9.49998 6.33331V4.33331V6.33331ZM6.83331 8.99998H4.83331H6.83331ZM6.83331 23H4.83331H6.83331ZM22.5 27.6666C23.6045 27.6666 24.5 26.7712 24.5 25.6666C24.5 24.5621 23.6045 23.6666 22.5 23.6666V27.6666ZM28.1666 21V8.99998H24.1666V21H28.1666ZM28.1666 8.99998C28.1666 7.7623 27.675 6.57532 26.7998 5.70015L23.9714 8.52857C24.0964 8.6536 24.1666 8.82317 24.1666 8.99998H28.1666ZM26.7998 5.70015C25.9246 4.82498 24.7377 4.33331 23.5 4.33331V8.33331C23.6768 8.33331 23.8464 8.40355 23.9714 8.52857L26.7998 5.70015ZM23.5 4.33331H9.49998V8.33331H23.5V4.33331ZM9.49998 4.33331C8.2623 4.33331 7.07532 4.82498 6.20015 5.70015L9.02857 8.52857C9.1536 8.40355 9.32317 8.33331 9.49998 8.33331V4.33331ZM6.20015 5.70015C5.32498 6.57532 4.83331 7.7623 4.83331 8.99998H8.83331C8.83331 8.82317 8.90355 8.6536 9.02857 8.52857L6.20015 5.70015ZM4.83331 8.99998V23H8.83331V8.99998H4.83331ZM4.83331 23C4.83331 24.2377 5.32498 25.4246 6.20015 26.2998L9.02857 23.4714C8.90355 23.3464 8.83331 23.1768 8.83331 23H4.83331ZM6.20015 26.2998C7.07532 27.175 8.2623 27.6666 9.49998 27.6666V23.6666C9.32317 23.6666 9.1536 23.5964 9.02857 23.4714L6.20015 26.2998ZM9.49998 27.6666H22.5V23.6666H9.49998V27.6666Z" fill="black" mask="url(#path-1-outside-1_18_121)"/>
</g>
<path d="M12.1667 11.6667H20.8334M12.1667 17H15.5" stroke="black" stroke-width="2" stroke-linecap="round" stroke-linejoin="round"/>
<path d="M19.5759 20.7277C20.8287 19.5387 22.4961 19.8878 23.4961 21.1877C24.4962 19.8878 26.1417 19.5514 27.4164 20.7295C28.6892 21.904 28.8455 23.9058 27.86 25.3111L23.4961 30L19.1323 25.3111C18.1486 23.9058 18.325 21.9168 19.5759 20.7277Z" fill="#969696" stroke="black" stroke-width="2" stroke-linecap="round" stroke-linejoin="round"/>
<path d="M6.70509 44V38.336H8.08109V42.808H10.2731V44H6.70509ZM10.916 44V38.336H12.292V44H10.916ZM16.4549 39.808C16.3376 39.6587 16.1829 39.5413 15.9909 39.456C15.8042 39.3653 15.6229 39.32 15.4469 39.32C15.3562 39.32 15.2629 39.328 15.1669 39.344C15.0762 39.36 14.9936 39.392 14.9189 39.44C14.8442 39.4827 14.7802 39.5413 14.7269 39.616C14.6789 39.6853 14.6549 39.776 14.6549 39.888C14.6549 39.984 14.6736 40.064 14.7109 40.128C14.7536 40.192 14.8122 40.248 14.8869 40.296C14.9669 40.344 15.0602 40.3893 15.1669 40.432C15.2736 40.4693 15.3936 40.5093 15.5269 40.552C15.7189 40.616 15.9189 40.688 16.1269 40.768C16.3349 40.8427 16.5242 40.944 16.6949 41.072C16.8656 41.2 17.0069 41.36 17.1189 41.552C17.2309 41.7387 17.2869 41.9733 17.2869 42.256C17.2869 42.5813 17.2256 42.864 17.1029 43.104C16.9856 43.3387 16.8256 43.5333 16.6229 43.688C16.4202 43.8427 16.1882 43.9573 15.9269 44.032C15.6656 44.1067 15.3962 44.144 15.1189 44.144C14.7136 44.144 14.3216 44.0747 13.9429 43.936C13.5642 43.792 13.2496 43.5893 12.9989 43.328L13.8949 42.416C14.0336 42.5867 14.2149 42.7307 14.4389 42.848C14.6682 42.96 14.8949 43.016 15.1189 43.016C15.2202 43.016 15.3189 43.0053 15.4149 42.984C15.5109 42.9627 15.5936 42.928 15.6629 42.88C15.7376 42.832 15.7962 42.768 15.8389 42.688C15.8816 42.608 15.9029 42.512 15.9029 42.4C15.9029 42.2933 15.8762 42.2027 15.8229 42.128C15.7696 42.0533 15.6922 41.9867 15.5909 41.928C15.4949 41.864 15.3722 41.808 15.2229 41.76C15.0789 41.7067 14.9136 41.6507 14.7269 41.592C14.5456 41.5333 14.3669 41.464 14.1909 41.384C14.0202 41.304 13.8656 41.2027 13.7269 41.08C13.5936 40.952 13.4842 40.8 13.3989 40.624C13.3189 40.4427 13.2789 40.224 13.2789 39.968C13.2789 39.6533 13.3429 39.384 13.4709 39.16C13.5989 38.936 13.7669 38.752 13.9749 38.608C14.1829 38.464 14.4176 38.36 14.6789 38.296C14.9402 38.2267 15.2042 38.192 15.4709 38.192C15.7909 38.192 16.1162 38.2507 16.4469 38.368C16.7829 38.4853 17.0762 38.6587 17.3269 38.888L16.4549 39.808ZM20.5119 39.504V44H19.1439V39.504H17.5439V38.336H22.1119V39.504H20.5119ZM25.7283 39.808C25.611 39.6587 25.4563 39.5413 25.2643 39.456C25.0777 39.3653 24.8963 39.32 24.7203 39.32C24.6297 39.32 24.5363 39.328 24.4403 39.344C24.3497 39.36 24.267 39.392 24.1923 39.44C24.1177 39.4827 24.0537 39.5413 24.0003 39.616C23.9523 39.6853 23.9283 39.776 23.9283 39.888C23.9283 39.984 23.947 40.064 23.9843 40.128C24.027 40.192 24.0857 40.248 24.1603 40.296C24.2403 40.344 24.3337 40.3893 24.4403 40.432C24.547 40.4693 24.667 40.5093 24.8003 40.552C24.9923 40.616 25.1923 40.688 25.4003 40.768C25.6083 40.8427 25.7977 40.944 25.9683 41.072C26.139 41.2 26.2803 41.36 26.3923 41.552C26.5043 41.7387 26.5603 41.9733 26.5603 42.256C26.5603 42.5813 26.499 42.864 26.3763 43.104C26.259 43.3387 26.099 43.5333 25.8963 43.688C25.6937 43.8427 25.4617 43.9573 25.2003 44.032C24.939 44.1067 24.6697 44.144 24.3923 44.144C23.987 44.144 23.595 44.0747 23.2163 43.936C22.8377 43.792 22.523 43.5893 22.2723 43.328L23.1683 42.416C23.307 42.5867 23.4883 42.7307 23.7123 42.848C23.9417 42.96 24.1683 43.016 24.3923 43.016C24.4937 43.016 24.5923 43.0053 24.6883 42.984C24.7843 42.9627 24.867 42.928 24.9363 42.88C25.011 42.832 25.0697 42.768 25.1123 42.688C25.155 42.608 25.1763 42.512 25.1763 42.4C25.1763 42.2933 25.1497 42.2027 25.0963 42.128C25.043 42.0533 24.9657 41.9867 24.8643 41.928C24.7683 41.864 24.6457 41.808 24.4963 41.76C24.3523 41.7067 24.187 41.6507 24.0003 41.592C23.819 41.5333 23.6403 41.464 23.4643 41.384C23.2937 41.304 23.139 41.2027 23.0003 41.08C22.867 40.952 22.7577 40.8 22.6723 40.624C22.5923 40.4427 22.5523 40.224 22.5523 39.968C22.5523 39.6533 22.6163 39.384 22.7443 39.16C22.8723 38.936 23.0403 38.752 23.2483 38.608C23.4563 38.464 23.691 38.36 23.9523 38.296C24.2137 38.2267 24.4777 38.192 24.7443 38.192C25.0643 38.192 25.3897 38.2507 25.7203 38.368C26.0563 38.4853 26.3497 38.6587 26.6003 38.888L25.7283 39.808Z" fill="white" fill-opacity="0.6"/>
<defs>
<filter id="filter0_d_18_121" x="2.83331" y="4.33331" width="25.3333" height="25.3333" filterUnits="userSpaceOnUse" color-interpolation-filters="sRGB">
<feFlood flood-opacity="0" result="BackgroundImageFix"/>
<feColorMatrix in="SourceAlpha" type="matrix" values="0 0 0 0 0 0 0 0 0 0 0 0 0 0 0 0 0 0 127 0" result="hardAlpha"/>
<feOffset dx="-2" dy="2"/>
<feComposite in2="hardAlpha" operator="out"/>
<feColorMatrix type="matrix" values="0 0 0 0 0 0 0 0 0 0 0 0 0 0 0 0 0 0 1 0"/>
<feBlend mode="normal" in2="BackgroundImageFix" result="effect1_dropShadow_18_121"/>
<feBlend mode="normal" in="SourceGraphic" in2="effect1_dropShadow_18_121" result="shape"/>
</filter>
</defs>
</svg>
