<svg width="22" height="22" viewBox="0 0 22 22" fill="none" xmlns="http://www.w3.org/2000/svg">
<g filter="url(#filter0_d_110_16)">
<path d="M10.8875 1.74524C11.4806 1.08136 12.5194 1.08136 13.1125 1.74524C13.535 2.21814 14.2103 2.37227 14.7962 2.12952C15.6186 1.78874 16.5546 2.23946 16.8009 3.09495C16.9764 3.70434 17.5179 4.1362 18.1511 4.17168C19.0399 4.22149 19.6876 5.03366 19.5384 5.91132C19.4321 6.53649 19.7326 7.16055 20.2877 7.46723C21.0669 7.89777 21.2981 8.91054 20.7828 9.63653C20.4158 10.1537 20.4158 10.8463 20.7828 11.3635C21.2981 12.0895 21.0669 13.1022 20.2877 13.5328C19.7326 13.8394 19.4321 14.4635 19.5384 15.0887C19.6876 15.9663 19.0399 16.7785 18.1511 16.8283C17.5179 16.8638 16.9764 17.2957 16.8009 17.905C16.5546 18.7605 15.6186 19.2113 14.7962 18.8705C14.2103 18.6277 13.535 18.7819 13.1125 19.2548C12.5194 19.9186 11.4806 19.9186 10.8875 19.2548C10.465 18.7819 9.78967 18.6277 9.20382 18.8705C8.38137 19.2113 7.44544 18.7605 7.19909 17.905C7.02361 17.2957 6.48207 16.8638 5.84891 16.8283C4.96006 16.7785 4.31237 15.9663 4.4616 15.0887C4.5679 14.4635 4.26737 13.8394 3.71231 13.5328C2.93308 13.1022 2.70193 12.0895 3.21718 11.3635C3.5842 10.8463 3.58421 10.1537 3.21718 9.63653C2.70193 8.91054 2.93308 7.89777 3.71231 7.46723C4.26737 7.16055 4.5679 6.53649 4.4616 5.91132C4.31237 5.03366 4.96006 4.22149 5.84891 4.17168C6.48207 4.1362 7.02361 3.70434 7.19909 3.09495C7.44544 2.23946 8.38137 1.78874 9.20382 2.12952C9.78967 2.37227 10.465 2.21814 10.8875 1.74524Z" fill="#E80000"/>
<path d="M11.2603 2.07837C11.6547 1.63698 12.3453 1.63698 12.7397 2.07837C13.3038 2.70976 14.2054 2.91554 14.9876 2.59144C15.5344 2.36486 16.1567 2.66453 16.3204 3.23331C16.5547 4.04693 17.2778 4.62352 18.1231 4.67089C18.7141 4.70401 19.1447 5.24399 19.0455 5.82751C18.9036 6.66221 19.3048 7.49541 20.0459 7.90487C20.564 8.19112 20.7176 8.86447 20.3751 9.34715C19.885 10.0376 19.885 10.9624 20.3751 11.6529C20.7176 12.1355 20.564 12.8089 20.0459 13.0951C19.3048 13.5046 18.9036 14.3378 19.0455 15.1725C19.1447 15.756 18.7141 16.296 18.1231 16.3291C17.2778 16.3765 16.5547 16.9531 16.3204 17.7667C16.1567 18.3355 15.5344 18.6351 14.9876 18.4086C14.2054 18.0845 13.3038 18.2902 12.7397 18.9216C12.3453 19.363 11.6547 19.363 11.2603 18.9216C10.6962 18.2902 9.79461 18.0845 9.01242 18.4086C8.46561 18.6351 7.84335 18.3355 7.67956 17.7667C7.44527 16.9531 6.72224 16.3765 5.87689 16.3291C5.28592 16.296 4.8553 15.756 4.95452 15.1725C5.09645 14.3378 4.6952 13.5046 3.95411 13.0951C3.43604 12.8089 3.28235 12.1355 3.62492 11.6529C4.11496 10.9624 4.11496 10.0376 3.62492 9.34715C3.28235 8.86447 3.43604 8.19112 3.95411 7.90487C4.6952 7.49541 5.09645 6.66221 4.95452 5.82751C4.8553 5.24399 5.28592 4.70401 5.87689 4.67089C6.72224 4.62352 7.44527 4.04693 7.67956 3.23331C7.84335 2.66453 8.46561 2.36486 9.01242 2.59144C9.79461 2.91554 10.6962 2.70976 11.2603 2.07837Z" stroke="black"/>
</g>
<path d="M12.6193 8.94123L12.6193 8.94132C12.6632 9.29984 12.7416 9.53812 12.881 9.67748L16.1472 12.9437C16.259 13.0555 16.3478 13.1883 16.4083 13.3345C16.4688 13.4806 16.5 13.6372 16.5 13.7954C16.5 13.9536 16.4688 14.1103 16.4083 14.2564C16.3478 14.4025 16.259 14.5353 16.1472 14.6472L15.7936 14.2936L16.1472 14.6472C16.0353 14.759 15.9025 14.8478 15.7564 14.9083C15.6103 14.9688 15.4536 15 15.2954 15C15.1372 15 14.9806 14.9688 14.8345 14.9083C14.6883 14.8478 14.5555 14.759 14.4437 14.6472L11.1775 11.381C11.0381 11.2416 10.7998 11.1632 10.4413 11.1193L10.4412 11.1193C9.76844 11.0367 9.07391 10.686 8.51304 10.1245C8.51303 10.1245 8.51303 10.1245 8.51302 10.1245M12.6193 8.94123L11.2717 7.36677C10.3415 6.43657 9.04939 6.2214 8.38567 6.88567C7.7214 7.54939 7.93657 8.84152 8.86677 9.77118L8.51302 10.1245M12.6193 8.94123C12.5368 8.26807 12.1867 7.57404 11.6251 7.01302M12.6193 8.94123L11.6251 7.01302M8.51302 10.1245C7.98285 9.59456 7.64113 8.94708 7.5351 8.3109C7.42925 7.67583 7.55616 7.00779 8.03212 6.53212C8.5078 6.05616 9.17584 5.92926 9.81096 6.0351C10.4472 6.14113 11.0948 6.48286 11.6251 7.01302M8.51302 10.1245L11.6251 7.01302" fill="white" stroke="black" stroke-linecap="round" stroke-linejoin="round"/>
<defs>
<filter id="filter0_d_110_16" x="0.94165" y="1.24734" width="20.1167" height="20.5053" filterUnits="userSpaceOnUse" color-interpolation-filters="sRGB">
<feFlood flood-opacity="0" result="BackgroundImageFix"/>
<feColorMatrix in="SourceAlpha" type="matrix" values="0 0 0 0 0 0 0 0 0 0 0 0 0 0 0 0 0 0 127 0" result="hardAlpha"/>
<feOffset dx="-2" dy="2"/>
<feComposite in2="hardAlpha" operator="out"/>
<feColorMatrix type="matrix" values="0 0 0 0 0 0 0 0 0 0 0 0 0 0 0 0 0 0 1 0"/>
<feBlend mode="normal" in2="BackgroundImageFix" result="effect1_dropShadow_110_16"/>
<feBlend mode="normal" in="SourceGraphic" in2="effect1_dropShadow_110_16" result="shape"/>
</filter>
</defs>
</svg>
